{"title":"Blackhat 2015 HDRip XviD CAM AUDIO- FWOLF","uid":11777496,"size":1711639264,"categoryP":"video","categoryS":"movies","magnet":"?xt=urn:btih:3407c348f2ea09dd9c37a7750a64e31528578605&amp;dn=Blackhat+2015+HDRip+XviD+CAM+AUDIO-+FWOLF+&amp;tr=udp%3A%2F%2Ftracker.openbittorrent.com%3A80&amp;tr=udp%3A%2F%2Fopen.demonii.com%3A1337&amp;tr=udp%3A%2F%2Ftracker.coppersurfer.tk%3A6969&amp;tr=udp%3A%2F%2Fexodus.desync.com%3A6969","seeders":5,"leechers":0,"uploader":"sakhslitsa","files":4,"time":1427384655,"description":" &lt;a href=&quot;http://www.imdb.com/title/tt2717822/&quot; rel=&quot;nofollow&quot; target=&quot;_NEW&quot;&gt;http://www.imdb.com/title/tt2717822/&lt;/a&gt;\n\n\nFormat : AVI\nFormat/Info : Audio Video Interleave\nFile size : 1.59 GiB\nDuration : 2h 12mn\nOverall bit rate : 1 707 Kbps\n\nVideo\nID : 0\nFormat : MPEG-4 Visual\nFormat profile : Advanced Simple@L5\nFormat settings, BVOP : 2\nFormat settings, QPel : Yes\nFormat settings, GMC : No warppoints\nFormat settings, Matrix : Default (H.263)\nMuxing mode : Packed bitstream\nCodec ID : XVID\nCodec ID/Hint : XviD\nDuration : 2h 12mn\nBit rate : 1 521 Kbps\nWidth : 720 pixels\nHeight : 304 pixels\nDisplay aspect ratio : 2.35:1\nFrame rate : 23.976 fps\nColor space : YUV\nChroma subsampling : 4:2:0\nBit depth : 8 bits\nScan type : Progressive\nCompression mode : Lossy\nBits/(Pixel*Frame) : 0.290\nStream size : 1.41 GiB (89%)\nWriting library : XviD 1.2.1 (UTC 2008-12-04)\n\nAudio\nID : 1\nFormat : AC-3\nFormat/Info : Audio Coding 3\nMode extension : CM (complete main)\nFormat settings, Endianness : Big\nCodec ID : 2000\nDuration : 2h 4mn\nBit rate mode : Constant\nBit rate : 192 Kbps\nChannel(s) : 2 channels\nChannel positions : Front: L R\nSampling rate : 44.1 KHz\nBit depth : 16 bits\nCompression mode : Lossy\nStream size : 171 MiB (11%)\nAlignment : Aligned on interleaves\nInterleave, duration : 75 ms (1.79 video frames)\nInterleave, preload duration : 208 ms\nTitle : English\n\n\n\nEncoded....................FWOLF\n\nSource......................1080p.WEB-DL (Thanks!)\n\nSample.....................Yes\n\nSubs.......................(srt) No\n\n\n\n\nGreetz To: PsiX | Blacksheep | CFR | tomcat-12...\n.....and all P2P Encoders and Groups","torrent":{"xt":"urn:btih:3407c348f2ea09dd9c37a7750a64e31528578605","amp;dn":"Blackhat+2015+HDRip+XviD+CAM+AUDIO-+FWOLF+","amp;tr":["udp%3A%2F%2Ftracker.openbittorrent.com%3A80","udp%3A%2F%2Fopen.demonii.com%3A1337","udp%3A%2F%2Ftracker.coppersurfer.tk%3A6969","udp%3A%2F%2Fexodus.desync.com%3A6969"],"infoHash":"3407c348f2ea09dd9c37a7750a64e31528578605","infoHashBuffer":{"type":"Buffer","data":[52,7,195,72,242,234,9,221,156,55,167,117,10,100,227,21,40,87,134,5]},"announce":[],"urlList":[]}}